<svg xmlns="http://www.w3.org/2000/svg" viewBox="0 0 98.72 103.88"><defs><style>.cls-1{fill:#fff;}</style></defs><g id="Layer_2" data-name="Layer 2"><g id="Layer_1-2" data-name="Layer 1"><path class="cls-1" d="M45.18,81.37l-1.91-12-12,8.24L19.8,63.18S10.14,81.48,31.08,89.8L23.65,99,39,103.88v-11l-4-1.74c26,7.48,29.83-14,29.83-14Z"/><polygon class="cls-1" points="47.79 77.39 46.65 68.67 58.94 60.96 63.57 74 47.79 77.39"/><polygon class="cls-1" points="31.33 72.24 42.04 66.96 38.76 55.24 23.76 62.39 31.33 72.24"/><path class="cls-1" d="M22.9,57.49l15-5.28-8.43-14S23.28,48.19,22.9,57.49Z"/><path class="cls-1" d="M61.69,60.67c.28.57,3.88,11.72,3.88,11.72s8.4-4,7.54-16.15Z"/><path class="cls-1" d="M40.45,49.32l10-8.29-.8-7.25A3.46,3.46,0,0,0,46,30.71a17.45,17.45,0,0,0-12.22,5.75Z"/><path class="cls-1" d="M59.52,44l2.77,12.4,11.86-4.29s1-6-1.57-9.71S59.52,44,59.52,44Z"/><path class="cls-1" d="M69.36,74l-2.68,9s3.4-.14,4.26,1.57S68.81,99,68.81,99s10.13-9.14,8.56-16.57A10.4,10.4,0,0,0,69.36,74Z"/><path class="cls-1" d="M16.21,61.38,12.55,70S10,67.76,8.27,68.54.74,81,.74,81s-2-13.5,3.93-18.24A10.39,10.39,0,0,1,16.21,61.38Z"/><path class="cls-1" d="M73.59,70.92l2.67-8.21s5.81,0,7.57,4.1C87.54,75.35,82.54,88,82.54,88S80.6,74.14,78.4,73.14,73.59,70.92,73.59,70.92Z"/><path class="cls-1" d="M18.05,54.81l3.49-7.9s-4.36-3.83-8.38-2C4.7,48.81,0,61.57,0,61.57s10.69-9,13-8.31S18.05,54.81,18.05,54.81Z"/><path class="cls-1" d="M77.29,60.23s6.3-.93,8.39,1.51,5.64,13.32,5.39,16.53c0,0,5.88-13,1-22.47S79.25,52,79.25,52Z"/><path class="cls-1" d="M22.61,42.23s-4.18-4.8-7.35-4.31S2.31,44.37.41,47c0,0,4-13.72,13.84-17.74S26.47,34.7,26.47,34.7Z"/><path class="cls-1" d="M76.72,41.26l1,6.94S88.15,48,92.86,41.26s5.86-18.12,5.86-18.12l-5.28,5.71L91.72,24l-3.14,7.58L87,26l-1.51,3.53a53,53,0,0,0-2.07,6C82.88,37.15,81.36,39.63,76.72,41.26Z"/><path class="cls-1" d="M65.71,31.1,68.34,36l5.37-3.25a11.07,11.07,0,0,0,3-12.49l-3.47-8.55-.75,9.33a11,11,0,0,1-3.81,7.49Z"/><path class="cls-1" d="M31.33,32.92l4.86-3.1s-5.43-3.72-4.86-8.43S41.11,16,41.11,16L39.45,12.1l8.31-5.43L41.11,5.24,46.76.81s-13-6-20.42,14.75a13.74,13.74,0,0,0,1.58,12.3Z"/><polygon class="cls-1" points="42.74 53.07 45.33 64.26 57.48 56.92 53.6 44.32 42.74 53.07"/><path class="cls-1" d="M55.11,43.06,53.36,32.4s4.58-1.24,7.58,0,4.77,5.06,4.77,5.06Z"/><path class="cls-1" d="M56.61,28.14,51.47,29,49.75,25.9a7.33,7.33,0,0,1,3.11-8.71L65,9.85,57.87,19.3a7.31,7.31,0,0,0-1.46,4.77Z"/></g></g></svg>