<svg width="39" height="39" viewBox="0 0 39 39" fill="none" xmlns="http://www.w3.org/2000/svg">
<path d="M35.1495 26.7325H12.4693L13.6081 24.4131L32.5291 24.3788C33.169 24.3788 33.7174 23.9218 33.8317 23.2896L36.452 8.62266C36.5206 8.23799 36.4177 7.84189 36.1664 7.54102C36.0421 7.39294 35.8872 7.27366 35.7122 7.19145C35.5373 7.10924 35.3466 7.06608 35.1533 7.06494L11.083 6.98496L10.8773 6.01758C10.7478 5.40059 10.1917 4.95117 9.55952 4.95117H3.67524C3.31868 4.95117 2.97672 5.09282 2.72459 5.34495C2.47246 5.59708 2.33081 5.93904 2.33081 6.29561C2.33081 6.65217 2.47246 6.99413 2.72459 7.24626C2.97672 7.49839 3.31868 7.64004 3.67524 7.64004H8.47026L9.36909 11.9133L11.5819 22.6269L8.73306 27.2771C8.58511 27.4768 8.496 27.7139 8.47581 27.9616C8.45562 28.2093 8.50515 28.4577 8.6188 28.6787C8.84731 29.1319 9.30815 29.4176 9.81851 29.4176H12.2103C11.7004 30.0948 11.425 30.9197 11.4257 31.7675C11.4257 33.9231 13.1777 35.6751 15.3333 35.6751C17.489 35.6751 19.241 33.9231 19.241 31.7675C19.241 30.9182 18.9591 30.0917 18.4564 29.4176H24.592C24.0821 30.0948 23.8067 30.9197 23.8075 31.7675C23.8075 33.9231 25.5594 35.6751 27.7151 35.6751C29.8708 35.6751 31.6227 33.9231 31.6227 31.7675C31.6227 30.9182 31.3409 30.0917 30.8381 29.4176H35.1533C35.8921 29.4176 36.4977 28.8158 36.4977 28.0731C36.4955 27.717 36.3525 27.3761 36.0999 27.1249C35.8473 26.8738 35.5057 26.7327 35.1495 26.7325V26.7325ZM11.6428 9.63574L33.5727 9.70811L31.4247 21.7356L14.1984 21.7661L11.6428 9.63574ZM15.3333 32.971C14.6707 32.971 14.1298 32.4302 14.1298 31.7675C14.1298 31.1048 14.6707 30.564 15.3333 30.564C15.996 30.564 16.5369 31.1048 16.5369 31.7675C16.5369 32.0867 16.4101 32.3928 16.1844 32.6185C15.9587 32.8442 15.6525 32.971 15.3333 32.971V32.971ZM27.7151 32.971C27.0524 32.971 26.5116 32.4302 26.5116 31.7675C26.5116 31.1048 27.0524 30.564 27.7151 30.564C28.3778 30.564 28.9186 31.1048 28.9186 31.7675C28.9186 32.0867 28.7918 32.3928 28.5661 32.6185C28.3404 32.8442 28.0343 32.971 27.7151 32.971V32.971Z" fill="#00B15B"/>
</svg>
