<svg width="24" height="20" viewBox="0 0 24 20" fill="none" xmlns="http://www.w3.org/2000/svg">
<path d="M3.79167 0.666657H19.5417C20.5102 0.666593 21.442 1.03714 22.1459 1.70227C22.8499 2.36741 23.2727 3.27671 23.3275 4.24365L23.3333 4.45832V15.5416C23.3334 16.5101 22.9628 17.4419 22.2977 18.1459C21.6326 18.8499 20.7233 19.2726 19.7563 19.3275L19.5417 19.3333H3.79167C2.82317 19.3334 1.89137 18.9628 1.1874 18.2977C0.483428 17.6326 0.0606651 16.7233 0.00583347 15.7563L8.13771e-09 15.5416V4.45832C-6.34045e-05 3.48983 0.37048 2.55802 1.03562 1.85405C1.70075 1.15008 2.61006 0.727322 3.577 0.67249L3.79167 0.666657H19.5417H3.79167ZM21.5833 6.93515L12.075 11.9402C11.9676 11.9969 11.8496 12.0306 11.7285 12.0393C11.6074 12.0479 11.4858 12.0312 11.3715 11.9903L11.2595 11.9413L1.75 6.93632V15.5416C1.75002 16.054 1.9427 16.5477 2.28979 16.9246C2.63689 17.3015 3.11302 17.5342 3.62367 17.5763L3.79167 17.5833H19.5417C20.0542 17.5833 20.548 17.3904 20.925 17.0431C21.3019 16.6958 21.5344 16.2193 21.5763 15.7085L21.5833 15.5416V6.93515ZM19.5417 2.41666H3.79167C3.27928 2.41667 2.78563 2.60935 2.40871 2.95645C2.03179 3.30354 1.79916 3.77967 1.757 4.29032L1.75 4.45832V4.95882L11.6667 10.1773L21.5833 4.95765V4.45832C21.5833 3.94575 21.3904 3.45194 21.0431 3.075C20.6958 2.69805 20.2194 2.46554 19.7085 2.42366L19.5417 2.41666Z" fill="#8185A6"/>
</svg>
