<svg width="24" height="27" viewBox="0 0 24 27" fill="none" xmlns="http://www.w3.org/2000/svg">
<path d="M16.5006 11.85C16.5006 13.1628 15.9791 14.4219 15.0508 15.3502C14.1225 16.2785 12.8634 16.8 11.5506 16.8C10.2378 16.8 8.97871 16.2785 8.05041 15.3502C7.1221 14.4219 6.60059 13.1628 6.60059 11.85C6.60059 10.5372 7.1221 9.27812 8.05041 8.34981C8.97871 7.42151 10.2378 6.89999 11.5506 6.89999C12.8634 6.89999 14.1225 7.42151 15.0508 8.34981C15.9791 9.27812 16.5006 10.5372 16.5006 11.85ZM14.8506 11.85C14.8506 10.9748 14.5029 10.1354 13.884 9.51654C13.2652 8.89767 12.4258 8.54999 11.5506 8.54999C10.6754 8.54999 9.83601 8.89767 9.21714 9.51654C8.59827 10.1354 8.25059 10.9748 8.25059 11.85C8.25059 12.7252 8.59827 13.5646 9.21714 14.1834C9.83601 14.8023 10.6754 15.15 11.5506 15.15C12.4258 15.15 13.2652 14.8023 13.884 14.1834C14.5029 13.5646 14.8506 12.7252 14.8506 11.85Z" fill="#8185A6"/>
<path d="M19.7182 20.0258C21.8845 17.8584 23.1014 14.9194 23.1014 11.855C23.1014 8.7906 21.8845 5.85162 19.7182 3.6842C18.6459 2.61117 17.3727 1.75995 15.9712 1.17918C14.5698 0.598421 13.0677 0.2995 11.5507 0.2995C10.0337 0.2995 8.53161 0.598421 7.13019 1.17918C5.72877 1.75995 4.45553 2.61117 3.38322 3.6842C1.21692 5.85162 0 8.7906 0 11.855C0 14.9194 1.21692 17.8584 3.38322 20.0258L5.89287 22.4992L9.26382 25.7744L9.48327 25.9691C10.762 27.0053 12.6348 26.9393 13.8393 25.7744L17.857 21.8639L19.7182 20.0258ZM4.54647 4.84745C5.46613 3.92738 6.55806 3.19751 7.75987 2.69955C8.96168 2.20158 10.2498 1.94528 11.5507 1.94528C12.8516 1.94528 14.1398 2.20158 15.3416 2.69955C16.5434 3.19751 17.6353 3.92738 18.555 4.84745C20.3612 6.65495 21.3998 9.09013 21.4539 11.6449C21.508 14.1996 20.5735 16.6766 18.8454 18.559L18.555 18.8626L16.3753 21.0142L12.6958 24.5914L12.5407 24.7234C12.2554 24.9383 11.9079 25.0546 11.5507 25.0546C11.1935 25.0546 10.846 24.9383 10.5607 24.7234L10.4073 24.5914L5.49027 19.7981L4.54647 18.8626L4.25607 18.5606C2.52794 16.6783 1.59343 14.2013 1.64754 11.6465C1.70164 9.09178 2.74019 6.6566 4.54647 4.8491V4.84745Z" fill="#8185A6"/>
</svg>
