<svg width="128" height="45" viewBox="0 0 128 45" fill="none" xmlns="http://www.w3.org/2000/svg">
<path d="M42.2643 19.997C42.2574 19.7314 42.2288 19.4554 42.2058 19.1818C42.1898 19.0432 42.1692 18.9024 42.1508 18.7627C42.1325 18.623 42.1084 18.481 42.0809 18.3379C42.0809 18.3379 42.0717 13.996 36.0997 10.8953C35.9935 10.8411 35.8749 10.8153 35.7557 10.8207C35.6365 10.826 35.5207 10.8622 35.4198 10.9257C35.3188 10.9892 35.2362 11.0779 35.1799 11.183C35.1236 11.2881 35.0957 11.406 35.0988 11.5251C35.1118 12.0644 35.0976 12.604 35.0564 13.1418C34.9649 14.4572 34.6842 15.7525 34.2229 16.9879C33.9042 17.829 33.4739 18.6235 32.9434 19.3501C32.9114 19.393 32.8686 19.4266 32.8192 19.4475C32.7699 19.4684 32.7159 19.4758 32.6628 19.4689C32.6097 19.462 32.5593 19.4411 32.517 19.4084C32.4746 19.3756 32.4417 19.3322 32.4218 19.2825L32.4057 19.2448C31.6422 17.3841 28.2452 11.3442 16.1154 10.4396C15.9765 10.4295 15.837 10.449 15.7063 10.497C15.5756 10.5449 15.4566 10.6202 15.3573 10.7177C15.258 10.8153 15.1807 10.9328 15.1305 11.0626C15.0804 11.1923 15.0585 11.3313 15.0664 11.4701C15.2097 13.9079 15.3415 19.9856 13.6493 25.5286C13.4372 26.0828 13.2171 26.6312 12.9843 27.1694C12.6072 28.043 12.2036 28.8949 11.7622 29.6998C11.3463 30.4829 10.8638 31.2287 10.3199 31.9292C10.0739 32.243 9.80573 32.5388 9.51739 32.8143C9.27794 33.0503 9.01822 33.2648 8.74122 33.4555C8.54325 33.595 8.32728 33.7071 8.09919 33.7887C8.07626 33.7955 8.05448 33.8047 8.03155 33.8139C8.00862 33.823 7.98799 33.823 7.96735 33.8299C7.94671 33.8368 7.92493 33.8436 7.90315 33.8482C7.88223 33.8504 7.86153 33.8542 7.84124 33.8597C7.79994 33.868 7.75822 33.8741 7.71627 33.878H7.70022H7.69219H7.49615C7.32876 33.8894 7.18086 33.8654 7.0238 33.8631C6.88049 33.8368 6.72915 33.8265 6.59616 33.7875C6.3286 33.7338 6.07025 33.6416 5.82916 33.5139C5.30717 33.2197 4.87215 32.7931 4.56803 32.2773C4.19609 31.644 3.95297 30.9436 3.85263 30.2162C3.74071 29.4653 3.77968 28.6997 3.96728 27.964C3.97874 27.9205 3.98906 27.8758 4.00167 27.8335L4.04409 27.711C4.05785 27.6709 4.07046 27.6274 4.08537 27.5884L4.13466 27.4739C4.16384 27.3981 4.19793 27.3243 4.2367 27.253C4.27264 27.1784 4.31323 27.1061 4.35823 27.0366C4.54294 26.7426 4.7701 26.4776 5.03236 26.2499C5.28126 26.0376 5.56681 25.8723 5.87502 25.7622C6.14035 25.6656 6.42467 25.6327 6.70507 25.666H6.75323L6.79679 25.6786L6.88622 25.698C6.91603 25.7049 6.93896 25.7209 6.96762 25.7301C6.99648 25.7386 7.02449 25.7497 7.05131 25.7633C7.07573 25.7791 7.10099 25.7937 7.12698 25.8068C7.13959 25.8148 7.15679 25.8205 7.16711 25.8286L7.19806 25.8503L7.23131 25.8721L7.25653 25.8961C7.2762 25.9097 7.29393 25.9259 7.30927 25.9442C7.38377 26.0214 7.43708 26.1164 7.46404 26.2202C7.50523 26.3691 7.52073 26.524 7.5099 26.6782C7.48009 27.3984 7.06965 28.3235 6.61221 29.0701L6.5824 29.1193C6.49868 29.2599 6.46793 29.4257 6.49567 29.5869C6.52341 29.7481 6.60783 29.8941 6.73374 29.9987C6.87506 30.1078 7.05246 30.1596 7.2304 30.1437C7.40834 30.1278 7.57369 30.0453 7.69334 29.9128L7.82289 29.7731L7.96047 29.6185C8.0499 29.5144 8.13588 29.409 8.22187 29.3014C8.38925 29.085 8.54976 28.8606 8.69995 28.6224C9.02861 28.1221 9.27371 27.5718 9.42567 26.993C9.51006 26.6529 9.54215 26.302 9.52083 25.9522C9.49498 25.5521 9.38481 25.1619 9.19752 24.8072C9.15087 24.7157 9.09761 24.6277 9.03816 24.5439C9.0095 24.5026 8.98084 24.4591 8.95103 24.4179L8.85587 24.3034L8.75842 24.1889C8.72517 24.1511 8.68963 24.1214 8.65524 24.087C8.58645 24.0206 8.51537 23.9553 8.44314 23.8912C8.37018 23.8291 8.29362 23.7714 8.21384 23.7183C8.13605 23.6614 8.0553 23.6087 7.97193 23.5603C7.88824 23.5145 7.8034 23.471 7.71742 23.4286L7.58786 23.3656L7.45373 23.3233C6.76825 23.0766 6.0309 23.0096 5.3121 23.1286C4.63826 23.2331 3.9909 23.4663 3.4055 23.8156C2.83962 24.1563 2.32894 24.581 1.891 25.0751C1.78438 25.1988 1.67432 25.3145 1.57343 25.4564C1.46835 25.5911 1.37076 25.7313 1.28107 25.8767L1.14808 26.0873C1.10452 26.1583 1.06783 26.2305 1.03343 26.3026L0.918787 26.5213C0.882099 26.5934 0.849998 26.6667 0.815603 26.74C0.553019 27.316 0.355003 27.9193 0.225166 28.5388C0.0918012 29.1451 0.0169376 29.7628 0.0016023 30.3834C-0.009604 31.0109 0.0379912 31.638 0.143766 32.2567C0.251497 32.8993 0.430692 33.528 0.678026 34.131C0.941774 34.7681 1.28873 35.3676 1.70986 35.9138C2.1516 36.4891 2.67672 36.9954 3.26793 37.4161C4.45242 38.2361 5.84151 38.7117 7.28061 38.7901L7.53398 38.805L7.66124 38.813H7.81028C8.01904 38.8121 8.2276 38.8002 8.43511 38.7775C8.5383 38.766 8.64263 38.7534 8.74581 38.7386C8.84899 38.7237 8.94874 38.6996 9.04963 38.679C9.15052 38.6584 9.2537 38.6378 9.35115 38.6092C9.4486 38.5805 9.54605 38.5531 9.64236 38.5222C10.368 38.2879 11.0489 37.9333 11.6567 37.4733C12.7883 36.6146 13.5473 35.6138 14.179 34.6314C14.7726 33.6785 15.2957 32.6835 15.7439 31.6544C16.1842 30.6605 16.5579 29.6632 16.8904 28.6648C17.2229 27.6663 17.5221 26.6667 17.7904 25.6648C18.0587 24.6629 18.2914 23.6576 18.5069 22.6523C18.656 21.9538 18.9094 20.5672 19.0618 19.7119C19.0972 19.5151 19.2037 19.3381 19.3612 19.2146C19.5187 19.0911 19.7161 19.0297 19.916 19.0421C20.0279 19.0491 20.1372 19.0791 20.2371 19.1301C20.3369 19.1811 20.4252 19.2521 20.4964 19.3387C20.5676 19.4253 20.6202 19.5255 20.6509 19.6333C20.6816 19.741 20.6898 19.8539 20.6749 19.965C20.5087 21.1764 20.2026 23.2351 20.0386 24.087C19.5881 26.377 19.0618 28.667 18.3969 30.8678C18.0633 31.9681 17.6998 33.0547 17.2791 34.0738C17.0693 34.5799 16.8503 35.0757 16.6153 35.5245C16.5625 35.639 16.488 35.7592 16.4204 35.8783C16.3527 35.9974 16.2839 36.1188 16.2174 36.2401C16.073 36.4817 15.9354 36.7245 15.7852 36.9661C15.1993 37.9405 14.5699 38.9206 13.9256 39.9053C13.5977 40.3931 13.2813 40.8935 12.9924 41.4202C12.8456 41.6824 12.7092 41.9526 12.5785 42.2297C12.5131 42.3694 12.4501 42.5091 12.3905 42.6533C12.3309 42.7976 12.2758 42.9453 12.2288 43.0896L12.1933 43.211C12.1396 43.3967 12.1248 43.5915 12.1498 43.7832C12.1749 43.9749 12.2392 44.1593 12.3389 44.3251C12.5318 44.6325 12.8339 44.8558 13.1847 44.9503C13.5355 45.0448 13.909 45.0034 14.2306 44.8346C14.5074 44.6941 14.7754 44.5369 15.0331 44.364C15.3014 44.1831 15.5586 43.9922 15.8047 43.7915C16.2926 43.3916 16.7523 42.9585 17.1805 42.4953C18.0598 41.573 18.8869 40.6025 19.658 39.5882C19.8518 39.3294 20.0398 39.0603 20.2313 38.7958C20.3253 38.6592 20.4174 38.5218 20.5076 38.3836C20.5993 38.2439 20.6887 38.1122 20.7839 37.9588C21.1668 37.3623 21.4924 36.7726 21.7973 36.1806C22.4061 34.9978 22.9197 33.8184 23.4024 32.6311C24.3373 30.2763 25.137 27.8701 25.7974 25.4244C25.9637 24.8141 26.1242 24.2026 26.2732 23.5843C26.4222 22.966 26.5656 22.3432 26.6963 21.71C26.8556 20.9336 27.4461 20.0978 28.3128 20.3234C29.0385 20.4756 29.1864 21.3539 29.1428 21.9642C29.0821 22.8206 28.8402 23.7561 28.7347 24.2713C28.5318 25.1874 28.3105 26.0942 28.1179 27.0125L27.4483 29.7319L27.0849 31.0784L26.9061 31.754L26.7054 32.4181C26.5724 32.8624 26.4452 33.3101 26.3087 33.752C26.1723 34.194 26.0175 34.6268 25.8777 35.0688L25.771 35.3986L25.6564 35.7226L25.4271 36.3718L25.3125 36.6982C25.2746 36.8069 25.2356 36.9157 25.1978 37.021L24.9467 37.66L24.8241 37.9806C24.7839 38.0951 24.7427 38.1958 24.6956 38.2989L24.4216 38.9298L24.2898 39.2458L22.5529 42.9373C22.4494 43.1448 22.416 43.3802 22.4577 43.6083C22.4926 43.7751 22.5651 43.9317 22.6698 44.0663C22.8568 44.2975 23.126 44.4477 23.4213 44.4855C23.7165 44.5232 24.0149 44.4457 24.2542 44.269L24.4446 44.1316C24.5053 44.0869 24.5741 44.0377 24.6257 43.9942C24.7404 43.906 24.855 43.8178 24.9582 43.7262L25.2632 43.4526L25.4168 43.3152L25.5601 43.1755C25.9465 42.7988 26.2984 42.4106 26.647 42.011C27.3127 41.2173 27.9288 40.3832 28.4916 39.5137L28.9067 38.8634C29.05 38.647 29.1669 38.4237 29.2965 38.2038L29.6771 37.5374L29.8651 37.2031L30.0394 36.8688C30.2687 36.4176 30.498 35.9631 30.7273 35.5073C30.9566 35.0516 31.1435 34.5913 31.3521 34.1265L31.6594 33.4326L31.9391 32.7318L32.4917 31.3258C32.8357 30.3834 33.1532 29.4331 33.4639 28.4804C33.6095 28.0041 33.7483 27.5243 33.8858 27.0446L34.0933 26.3244C34.161 26.085 34.2172 25.84 34.2882 25.603C34.7033 24.229 35.0965 21.3539 35.8589 21.0104C36.102 20.8959 36.744 20.7894 36.9928 21.5623C37.1189 21.955 37.0811 22.6397 37.0857 22.926C37.096 23.6794 36.8564 26.6163 36.0882 29.7445C35.6893 31.3716 35.171 33.0272 34.7686 34.7138V34.7333C34.7208 34.9368 34.7347 35.1499 34.8086 35.3455C34.8825 35.5411 35.0131 35.7102 35.1837 35.8314C35.4172 35.9878 35.7026 36.0471 35.9792 35.9966C36.2558 35.9461 36.5018 35.7899 36.6649 35.5612C37.7086 34.1321 38.6408 32.625 39.4531 31.0532C39.8764 30.2308 40.2549 29.386 40.587 28.5228C40.9297 27.652 41.2274 26.7642 41.479 25.8629C41.7392 24.9385 41.9421 23.999 42.0866 23.0496C42.2419 22.0399 42.3014 21.0179 42.2643 19.997Z" fill="#8185A6"/>
<path d="M54.5935 21.1981C52.5769 17.1139 47.3248 17.3692 45.221 17.6486C44.9617 17.6834 44.7252 17.8154 44.5596 18.0178C44.394 18.2202 44.3116 18.4779 44.3291 18.7386C44.3556 19.3654 44.4979 19.9818 44.7487 20.5569C44.9548 21.0115 45.3279 21.3697 45.7909 21.5574C46.2539 21.7451 46.7714 21.7481 47.2366 21.5657C48.2258 21.1713 49.3128 21.0913 50.3493 21.3367C51.9853 21.7099 52.1091 23.7492 52.0036 25.09C51.9953 25.1965 51.9585 25.2989 51.8971 25.3863C51.8357 25.4738 51.7519 25.5433 51.6545 25.5875C51.5571 25.6317 51.4497 25.649 51.3433 25.6376C51.2369 25.6262 51.1356 25.5866 51.0498 25.5228C49.7026 24.5335 47.6287 24.2381 45.6074 25.224C42.1393 26.9163 40.9974 34.2902 44.0505 35.8978C47.7456 37.8443 50.3836 34.7528 51.3547 33.3146C51.3729 33.2871 51.4001 33.2668 51.4317 33.2571C51.4632 33.2475 51.4972 33.2491 51.5277 33.2617C51.5582 33.2742 51.5833 33.297 51.5988 33.3261C51.6144 33.3552 51.6192 33.3888 51.6127 33.4211L51.3834 34.6119C51.3317 34.8778 51.382 35.1534 51.5244 35.3839C51.6668 35.6144 51.8908 35.783 52.1519 35.8562C52.4131 35.9293 52.6922 35.9016 52.9339 35.7787C53.1755 35.6557 53.362 35.4464 53.4562 35.1925C54.3012 32.8933 56.7248 25.5125 54.5935 21.1981ZM47.655 32.1456C46.9924 32.6528 45.8688 32.4982 45.3093 31.9383C44.4563 31.0864 45.3666 27.261 47.8453 27.7556C48.5103 27.8896 48.7625 28.5857 48.8474 29.2235C48.9677 30.1006 48.3578 31.6074 47.655 32.1456Z" fill="#8185A6"/>
<path d="M44.9895 11.571L45.6969 12.4034C46.1796 12.9708 46.7801 13.4266 47.4567 13.7392C48.1334 14.0518 48.87 14.2137 49.6155 14.2136H55.3159C55.9101 14.2137 56.4974 14.3415 57.0378 14.5883C57.5782 14.835 58.0592 15.195 58.4481 15.6437C58.837 16.0925 59.1246 16.6195 59.2916 17.1891C59.4585 17.7587 59.5008 18.3575 59.4157 18.9448C59.4157 18.9448 57.9424 27.0469 57.5286 30.3125C57.3291 31.8937 57.07 34.5891 57.7796 36.6822C58.166 37.8111 59.7986 37.7001 60.0199 36.5276L63.6886 18.7799C64.6379 14.5033 61.5974 9.85573 57.2133 9.74924L45.9617 9.53398C45.7224 9.52696 45.4862 9.58958 45.2818 9.71422C45.0775 9.83886 44.9139 10.0201 44.8108 10.236C44.7078 10.4519 44.6698 10.693 44.7016 10.93C44.7333 11.167 44.8333 11.3897 44.9895 11.571Z" fill="#8185A6"/>
<path d="M76.5017 23.5764C73.7719 20.47 70.2442 22.8952 68.8604 24.0745C68.8206 24.109 68.7708 24.1299 68.7182 24.1342C68.6657 24.1385 68.6132 24.1259 68.5683 24.0984C68.5234 24.0708 68.4885 24.0296 68.4686 23.9808C68.4488 23.9321 68.445 23.8782 68.4579 23.8272L70.767 15.906C72.6323 8.16346 66.5789 0.782723 58.6108 1.08386L37.198 1.72278C37.0841 1.72685 36.9739 1.76437 36.8812 1.83065C36.7884 1.89692 36.7173 1.98902 36.6767 2.09542C36.6361 2.20183 36.6278 2.31783 36.6528 2.42892C36.6778 2.54002 36.7351 2.64129 36.8174 2.72008L38.0418 3.8983C39.4224 5.22553 41.2641 5.96709 43.1804 5.96733H57.4529C58.7731 5.96701 60.0784 6.24667 61.2824 6.78781C62.4863 7.32895 63.5615 8.11924 64.4368 9.10639C65.312 10.0935 65.9674 11.2551 66.3596 12.5141C66.7519 13.7731 66.8719 15.101 66.7119 16.4098C65.8188 23.6864 64.3409 31.4919 62.1787 37.6463C62.1531 37.7217 62.1518 37.8032 62.1749 37.8794C62.1981 37.9556 62.2445 38.0226 62.3077 38.0711C62.3709 38.1196 62.4478 38.1471 62.5274 38.1497C62.6071 38.1524 62.6856 38.1301 62.7519 38.086C63.8054 37.3213 64.7086 36.3692 65.4163 35.2773C65.5673 35.049 65.8015 34.8885 66.0691 34.8299C66.3367 34.7714 66.6167 34.8193 66.8494 34.9636C67.7437 35.5177 69.3144 36.1383 71.409 35.591C74.806 34.7036 79.9732 27.5279 76.5017 23.5764ZM71.8596 32.393C71.6096 32.5167 70.063 33.2793 68.8099 32.5499C67.4789 31.7759 67.2622 29.7778 67.6818 28.4152C68.2929 26.4287 70.2717 25.7428 70.6019 25.6283C71.5271 25.3077 73.5139 24.9344 74.4036 25.934C75.6693 27.3527 74.3509 31.1587 71.8596 32.3873V32.393Z" fill="#8185A6"/>
<path d="M94.7478 31.7426C93.5394 32.5647 92.3238 33.3761 91.1009 34.1769C90.4898 34.5776 89.881 34.9841 89.2665 35.3792L88.3402 35.9803C88.2036 36.0587 88.0632 36.1301 87.9194 36.1944C87.7681 36.2544 87.6125 36.303 87.4539 36.3398C87.2932 36.3766 87.1293 36.3981 86.9644 36.4039C86.8819 36.4039 86.7993 36.4039 86.7156 36.4039C86.6319 36.4039 86.5528 36.3891 86.4703 36.3799C85.8174 36.2965 85.2116 35.996 84.7506 35.5269C84.2737 35.0458 83.976 34.4163 83.9067 33.7429C83.8953 33.5749 83.893 33.4063 83.8999 33.238C83.909 33.1567 83.9205 33.0754 83.932 32.9941L83.9515 32.8727L83.9629 32.812L83.9721 32.7617L84.0867 32.2201L84.3287 31.1346C84.6588 29.6896 85.0269 28.248 85.4568 26.8065C85.6735 26.0851 85.9039 25.3637 86.1699 24.6424C86.4361 23.9012 86.7423 23.175 87.0871 22.4669C87.271 22.0886 87.4746 21.7202 87.697 21.3631C87.947 20.9541 88.2365 20.5706 88.5614 20.2181C88.7645 20.0017 88.988 19.8054 89.2287 19.6318C89.5421 19.4037 89.8939 19.2335 90.2674 19.1292C90.4603 19.0759 90.6581 19.0426 90.8578 19.0295L91.0608 19.0147C91.1301 19.0083 91.1998 19.006 91.2694 19.0078C91.5705 19.0024 91.8712 19.0277 92.1671 19.0834C92.3296 19.1129 92.4897 19.1538 92.6463 19.2059C92.7277 19.2322 92.808 19.2574 92.8883 19.2895C92.9685 19.3215 93.0488 19.3593 93.129 19.3971C93.2105 19.4329 93.2894 19.4742 93.3652 19.5208C93.442 19.5654 93.5188 19.6124 93.5945 19.6604C93.6701 19.7085 93.7389 19.7658 93.81 19.8207C93.8819 19.8737 93.95 19.9315 94.0141 19.9936C94.0783 20.0532 94.1425 20.115 94.2044 20.178C94.2663 20.241 94.3191 20.3062 94.3741 20.3715C94.4292 20.4355 94.4808 20.5024 94.5289 20.5719C94.5759 20.6383 94.6252 20.707 94.6687 20.7757C94.8294 21.0344 94.9634 21.3087 95.0689 21.5944C95.2458 22.088 95.349 22.605 95.375 23.1287C95.3969 23.5939 95.3708 24.0601 95.297 24.5199C95.2603 24.7489 95.2179 24.9664 95.1571 25.1954C95.1121 25.325 95.0597 25.452 95.0001 25.5756C94.6415 26.3776 94.1222 27.0978 93.4741 27.6916C93.3248 27.8302 93.1645 27.9565 92.9949 28.0694C92.6544 28.2893 92.2921 28.4735 91.9137 28.619C91.7687 28.6934 91.6052 28.724 91.443 28.7072C91.2809 28.6904 91.1272 28.6268 91.0005 28.5243C90.8739 28.4217 90.7799 28.2846 90.7299 28.1297C90.68 27.9747 90.6762 27.8085 90.7191 27.6515C90.7537 27.468 90.8139 27.2904 90.898 27.1236C90.9725 26.9725 91.0688 26.7675 91.2087 26.5362C92.1774 24.9264 92.2795 23.5226 92.2783 23.5123C92.354 22.2997 91.039 22.4256 90.6217 23.2535C90.4589 23.4951 90.2938 23.7607 90.139 24.0447C89.8272 24.6172 89.5417 25.2389 89.2619 25.8767C88.9822 26.5145 88.7277 27.1637 88.48 27.8232C87.9848 29.148 86.6594 33.4338 86.6594 33.4338C86.6588 33.4395 86.6588 33.4452 86.6594 33.451V33.4578C86.6606 33.4619 86.6606 33.4663 86.6594 33.4704C86.6459 33.5501 86.6522 33.6319 86.6778 33.7086C86.7207 33.7746 86.7851 33.824 86.8601 33.8483C86.9372 33.8765 87.0223 33.8736 87.0974 33.8403L88.0513 33.3193C88.6933 32.9758 89.3411 32.6323 89.9865 32.2888C91.2683 31.6071 92.5554 30.9357 93.8479 30.2747C94.0433 30.1716 94.2703 30.1455 94.484 30.2015C94.6978 30.2574 94.8827 30.3914 95.0024 30.577C95.1189 30.7665 95.1574 30.9937 95.11 31.2109C95.0625 31.4282 94.9328 31.6187 94.7478 31.7426Z" fill="#8185A6"/>
<path d="M121.542 16.8759C121.491 16.8209 121.46 16.79 121.417 16.7465L121.277 16.6079C121.185 16.5186 121.092 16.4339 120.999 16.3503C120.811 16.1854 120.618 16.0282 120.42 15.8786C120.019 15.5777 119.595 15.3097 119.152 15.0771C118.694 14.8355 118.215 14.6381 117.72 14.4874C117.206 14.3334 116.676 14.2355 116.141 14.1954C115.869 14.1765 115.596 14.1719 115.323 14.1817C114.777 14.2122 114.236 14.302 113.709 14.4496C113.58 14.4885 113.453 14.532 113.325 14.5744L113.134 14.6397L112.949 14.7164C112.002 15.1144 111.126 15.6661 110.358 16.3492L109.822 16.8484L109.302 17.4003L108.83 17.9762L108.402 18.5796C107.877 19.3838 107.435 20.2393 107.083 21.133C106.659 22.206 106.331 23.3146 106.103 24.4455C106.034 24.7703 105.855 25.0616 105.597 25.2702C105.338 25.4787 105.016 25.5919 104.683 25.5905C104.314 25.5906 103.959 25.45 103.69 25.1974C103.422 24.9448 103.26 24.5993 103.238 24.2314C103.225 24.0223 103.209 23.8127 103.189 23.6028C103.083 22.3271 102.85 21.0651 102.492 19.8357C102.111 18.5096 101.532 17.2488 100.773 16.0961C100.367 15.4995 99.9064 14.9422 99.3969 14.4313C98.8779 13.9149 98.3074 13.453 97.6943 13.0527C96.4795 12.2624 95.1213 11.7178 93.6966 11.4497C92.3732 11.2075 91.022 11.1555 89.6839 11.2951C88.4258 11.4248 87.1845 11.6838 85.9796 12.068C85.388 12.2546 84.8113 12.4687 84.2438 12.7092C83.9606 12.8237 83.6775 12.9508 83.3989 13.0893C83.259 13.1569 83.1191 13.2267 82.977 13.2989C82.907 13.3355 82.8348 13.3721 82.7637 13.4134L82.5207 13.5473C82.0133 13.7903 81.6234 14.2245 81.4367 14.7546C81.2499 15.2847 81.2817 15.8671 81.525 16.3738C81.7682 16.8805 82.203 17.2699 82.7338 17.4564C83.2645 17.6429 83.8477 17.6112 84.355 17.3682C84.3493 17.3682 84.3665 17.3682 84.3757 17.3682L84.4124 17.3568L84.4915 17.3339L84.6589 17.2824C84.7735 17.2469 84.8881 17.2125 85.0028 17.1793C85.239 17.1152 85.4774 17.0465 85.7182 16.9858C86.1997 16.8656 86.6835 16.7568 87.1662 16.6675C88.1055 16.4847 89.0585 16.3805 90.0152 16.356C90.8904 16.3286 91.7655 16.4113 92.62 16.6022C93.0061 16.6951 93.3842 16.8187 93.7504 16.9721C94.4445 17.2642 95.0749 17.6885 95.6066 18.2213C95.8811 18.4959 96.1301 18.7949 96.3507 19.1144C96.8201 19.8111 97.1815 20.5746 97.4226 21.3792C97.7013 22.2748 97.8933 23.195 97.9959 24.1272C98.0509 24.6043 98.086 25.0864 98.1013 25.5734C98.1166 26.0604 98.1166 26.5474 98.1013 27.0344C98.0652 28.0055 97.9502 28.972 97.7574 29.9244C97.5745 30.8409 97.3007 31.7369 96.9399 32.5992C96.7719 32.9971 96.5745 33.3822 96.3495 33.751C96.2417 33.9274 96.1271 34.0945 96.0056 34.2468C95.9471 34.3247 95.8909 34.3968 95.8279 34.4701C95.7648 34.5434 95.6788 34.6407 95.5986 34.7254C94.9588 35.4176 94.2505 36.0433 93.4845 36.593C91.9719 37.6969 90.2138 38.4179 88.3608 38.6941C87.4318 38.8191 86.4907 38.8257 85.56 38.7135C84.5951 38.5916 83.6462 38.3666 82.7293 38.0425L82.711 38.0357C82.3013 37.8934 81.8533 37.9083 81.4541 38.0776C81.0549 38.2469 80.733 38.5585 80.551 38.9517C80.3635 39.3753 80.3492 39.8553 80.5114 40.2893C80.6736 40.7232 80.9993 41.0765 81.4189 41.2738C81.9641 41.5334 82.5233 41.7628 83.0939 41.9608C83.6879 42.1693 84.2949 42.3387 84.9111 42.468C86.1682 42.7363 87.4561 42.8326 88.7392 42.7543C90.0316 42.6754 91.3077 42.4251 92.534 42.01C93.7466 41.5953 94.9069 41.0416 95.9918 40.36C97.076 39.6842 98.0812 38.8896 98.9887 37.991C99.1034 37.8765 99.218 37.762 99.3326 37.6406C99.4473 37.5193 99.5803 37.3704 99.6949 37.233C99.9242 36.9571 100.143 36.6754 100.339 36.3891C100.723 35.8319 101.063 35.2462 101.357 34.6373C101.912 33.4804 102.34 32.2668 102.632 31.0179C102.632 30.9961 102.643 30.9744 102.647 30.9526C102.722 30.6341 102.902 30.35 103.158 30.1464C103.414 29.9428 103.732 29.8315 104.06 29.8305H104.331C104.69 29.8308 105.036 29.9637 105.302 30.2034C105.568 30.4432 105.736 30.7728 105.774 31.129C105.805 31.4278 105.844 31.7255 105.888 32.0244C106.028 32.9665 106.248 33.895 106.546 34.7999C106.86 35.7852 107.314 36.7201 107.896 37.5754C107.977 37.6899 108.053 37.8044 108.141 37.9189L108.42 38.2555C108.469 38.3116 108.51 38.37 108.565 38.4227L108.727 38.5853L108.891 38.7467C108.945 38.7982 109.005 38.8612 109.051 38.8967C110.215 39.9236 111.594 40.6782 113.087 41.1054C114.527 41.517 116.034 41.6415 117.522 41.4718C117.766 41.4421 118.009 41.4066 118.255 41.3573C118.379 41.3344 118.502 41.307 118.628 41.2783L118.822 41.2325L119.051 41.1707C119.496 41.0725 119.885 40.8015 120.13 40.4175C120.375 40.0334 120.458 39.5677 120.36 39.1229C120.261 38.678 119.99 38.2903 119.605 38.0452C119.221 37.8001 118.755 37.7176 118.309 37.8158C118.323 37.8158 118.309 37.8158 118.309 37.8158H118.234H118.119H117.86C117.689 37.8158 117.516 37.8158 117.339 37.8032C116.995 37.7906 116.64 37.7551 116.296 37.7093C115.952 37.6635 115.608 37.5948 115.282 37.5181C114.955 37.4412 114.634 37.3433 114.319 37.225C114.011 37.1132 113.71 36.9836 113.417 36.8368C113.131 36.6881 112.852 36.5241 112.584 36.3456C112.319 36.1631 112.065 35.9654 111.822 35.7537C111.798 35.7329 111.775 35.7108 111.754 35.6873L111.694 35.6277L111.632 35.5693C111.61 35.5469 111.59 35.5232 111.571 35.4983C111.531 35.4491 111.49 35.401 111.447 35.3529C111.405 35.3048 111.367 35.2384 111.326 35.1834C110.966 34.6473 110.68 34.0655 110.475 33.4533C110.239 32.7676 110.056 32.0648 109.927 31.3511C109.663 29.8593 109.571 28.3422 109.653 26.8295C109.691 26.0726 109.779 25.3191 109.916 24.5738C110.047 23.8409 110.235 23.1193 110.478 22.4154C110.709 21.7381 111.009 21.086 111.372 20.4689L111.652 20.0315L111.954 19.6216L112.28 19.2403L112.649 18.8659C113.115 18.4072 113.653 18.0281 114.243 17.7438L114.346 17.6934L114.451 17.6533L114.661 17.572C114.803 17.5343 114.944 17.4804 115.088 17.4575C115.23 17.4265 115.375 17.4028 115.52 17.3865C115.665 17.3808 115.812 17.3671 115.96 17.3751C116.263 17.3837 116.565 17.4248 116.859 17.4976C117.171 17.5786 117.475 17.6883 117.767 17.8251C118.074 17.9666 118.369 18.1328 118.649 18.322C118.791 18.4182 118.929 18.519 119.062 18.6243C119.128 18.677 119.193 18.7308 119.255 18.7835L119.402 18.9151L119.516 19.0136C119.8 19.2632 120.168 19.3947 120.545 19.3808C120.923 19.3669 121.28 19.2089 121.545 18.9392C121.808 18.6601 121.955 18.2908 121.955 17.9071C121.954 17.5233 121.807 17.1543 121.542 16.8759Z" fill="#8185A6"/>
<path d="M127.271 26.3497C126.484 23.8455 123.773 22.712 122.487 22.1727C119.745 21.0277 117.25 21.3322 116.166 21.5326C114.891 22.1617 113.813 23.1285 113.05 24.3276C112.891 24.5841 110.849 27.9721 112.493 31.2297C113.485 33.1934 115.265 34.0235 116.199 34.4575C116.911 34.7895 119.179 35.8452 121.671 35.18C125.361 34.1953 128.347 29.7698 127.271 26.3497ZM122.707 31.9167C121.261 32.8693 119.522 32.2602 118.528 31.9167C117.534 31.5732 115.785 30.9606 115.184 29.2454C114.574 27.5004 115.401 25.3329 117.018 24.4031C118.623 23.4871 120.343 24.1444 121.031 24.4031C121.647 24.6379 123.377 25.2962 124.04 27.0745C124.656 28.7141 124.22 30.9148 122.707 31.9167Z" fill="#8185A6"/>
<path d="M121.532 29.4929C122.072 28.8028 121.755 27.654 120.823 26.9272C119.892 26.2003 118.699 26.1705 118.159 26.8607C117.619 27.5509 117.936 28.6996 118.868 29.4265C119.8 30.1533 120.992 30.1831 121.532 29.4929Z" fill="#8185A6"/>
<path d="M69.7993 30.4568C70.4688 30.9812 71.9123 30.4339 72.4247 29.4332C72.7687 28.761 72.7824 27.7157 72.1863 27.2863C71.5064 26.8042 70.3244 27.3412 69.797 28.121C69.3063 28.8412 69.2284 29.9988 69.7993 30.4568Z" fill="#8185A6"/>
<path d="M77.8006 9.31644L77.5805 7.94242L76.2047 8.88591L74.8863 7.23022C74.8863 7.23022 73.7788 9.3256 76.1784 10.2782L75.3323 11.3351L77.0864 11.8961V10.6366L76.6278 10.4374C79.6086 11.2939 80.0466 8.83439 80.0466 8.83439L77.8006 9.31644Z" fill="#8185A6"/>
<path d="M78.0998 8.86074L77.9691 7.8623L79.377 6.97949L79.9078 8.47259L78.0998 8.86074Z" fill="#8185A6"/>
<path d="M76.2116 8.27098L77.4407 7.66641L77.0635 6.32446L75.3438 7.14314L76.2116 8.27098Z" fill="#8185A6"/>
<path d="M75.2462 6.58209L76.9659 5.97753L75.9995 4.37451C75.9995 4.37451 75.2886 5.51723 75.2462 6.58209Z" fill="#8185A6"/>
<path d="M79.6923 6.9462C79.7255 7.01147 80.1371 8.28815 80.1371 8.28815C80.1371 8.28815 81.1013 7.83015 81.0027 6.43896L79.6923 6.9462Z" fill="#8185A6"/>
<path d="M77.2572 5.6468L78.4037 4.69758L78.3109 3.86745C78.2998 3.76568 78.2497 3.67216 78.171 3.60659C78.0923 3.54102 77.9912 3.50851 77.889 3.51593C77.6232 3.52718 77.3623 3.59119 77.1216 3.70423C76.8808 3.81727 76.665 3.97708 76.4868 4.17431L77.2572 5.6468Z" fill="#8185A6"/>
<path d="M79.4447 5.03755L79.7623 6.45736L81.122 5.96615C81.122 5.96615 81.2367 5.27914 80.9409 4.85435C80.6451 4.42955 79.4447 5.03755 79.4447 5.03755Z" fill="#8185A6"/>
<path d="M80.5728 8.47266L80.2655 9.50316C80.2655 9.50316 80.6553 9.48713 80.7528 9.68293C80.8502 9.87873 80.5086 11.3352 80.5086 11.3352C80.5086 11.3352 81.67 10.2886 81.49 9.4379C81.451 9.20398 81.3428 8.98707 81.1793 8.81506C81.0159 8.64305 80.8046 8.52381 80.5728 8.47266Z" fill="#8185A6"/>
<path d="M74.4781 7.02754L74.0642 8.01454C74.0642 8.01454 73.7742 7.75463 73.5735 7.84394C73.3729 7.93325 72.7045 9.27406 72.7045 9.27406C72.7045 9.27406 72.4752 7.72829 73.1562 7.18555C73.3357 7.03063 73.5574 6.93282 73.793 6.90466C74.0285 6.87651 74.2671 6.9193 74.4781 7.02754Z" fill="#8185A6"/>
<path d="M81.0577 8.11999L81.3627 7.17993C81.3627 7.17993 82.0288 7.17993 82.2318 7.64939C82.6629 8.62722 82.0896 10.0757 82.0896 10.0757C82.0896 10.0757 81.8603 8.48868 81.6092 8.37418C81.3581 8.25968 81.0577 8.11999 81.0577 8.11999Z" fill="#8185A6"/>
<path d="M74.6902 6.27523L75.0903 5.37068C75.0903 5.37068 74.5893 4.93214 74.1296 5.14167C73.1597 5.58708 72.6208 7.04812 72.6208 7.04812C72.6208 7.04812 73.8453 6.01761 74.1112 6.09661C74.3772 6.17562 74.6902 6.27523 74.6902 6.27523Z" fill="#8185A6"/>
<path d="M81.4808 6.89587C81.4808 6.89587 82.2031 6.78939 82.4439 7.06877C82.6847 7.34815 83.0894 8.59393 83.0619 8.96148C83.0619 8.96148 83.7349 7.47296 83.1765 6.38863C82.6182 5.30431 81.7067 5.95353 81.7067 5.95353L81.4808 6.89587Z" fill="#8185A6"/>
<path d="M75.2107 4.8349C75.2107 4.8349 74.7304 4.2853 74.3669 4.3414C74.0035 4.39751 72.8857 5.07993 72.6678 5.38107C72.6678 5.38107 73.1264 3.81012 74.2546 3.34982C75.3827 2.88953 75.6556 3.975 75.6556 3.975L75.2107 4.8349Z" fill="#8185A6"/>
<path d="M81.4166 4.72393L81.5313 5.51857C81.5313 5.51857 82.7271 5.48994 83.267 4.72393C83.807 3.95792 83.9389 2.64917 83.9389 2.64917L83.3324 3.30297L83.1363 2.74764L82.7775 3.61441L82.5895 2.97664L82.4152 3.38083C82.3229 3.60508 82.2437 3.83446 82.1779 4.06784C82.1229 4.25333 81.9486 4.53729 81.4166 4.72393Z" fill="#8185A6"/>
<path d="M80.1543 3.56051L80.4558 4.12156L81.0715 3.74943C81.2706 3.57638 81.4107 3.34562 81.4724 3.08929C81.534 2.83296 81.5141 2.56381 81.4154 2.31932L81.0176 1.34033L80.9316 2.40863C80.9041 2.74059 80.7472 3.04851 80.4948 3.26624L80.1543 3.56051Z" fill="#8185A6"/>
<path d="M76.2116 3.76886L76.7688 3.41391C76.7688 3.41391 76.1463 2.98797 76.2116 2.44867C76.277 1.90937 77.3341 1.83151 77.3341 1.83151L77.1426 1.38953L78.0953 0.767792L77.3341 0.604056L77.9807 0.092236C77.9807 0.092236 76.4902 -0.59477 75.6396 1.78113C75.5576 2.01377 75.5314 2.26236 75.5631 2.50695C75.5947 2.75153 75.6834 2.9853 75.8218 3.18949L76.2116 3.76886Z" fill="#8185A6"/>
<path d="M80.6359 18.6894C80.6359 18.6894 79.0388 17.6749 78.2122 17.3062C77.8851 17.1604 77.6271 16.8939 77.4923 16.5625C77.3574 16.231 77.3562 15.8603 77.4888 15.528L78.2248 13.6765C78.2603 13.5827 78.2898 13.4867 78.3131 13.3891V13.3811C78.328 13.3078 78.3229 13.2319 78.2983 13.1612C78.2738 13.0906 78.2306 13.0279 78.1734 12.9796C78.1162 12.9314 78.047 12.8994 77.9732 12.887C77.8993 12.8747 77.8235 12.8824 77.7536 12.9094C77.2071 13.1047 76.6137 13.1283 76.0533 12.9768C75.4929 12.8253 74.9925 12.5061 74.6192 12.0621C74.5705 12.0064 74.5079 11.9647 74.4377 11.9411C74.3676 11.9176 74.2924 11.9131 74.22 11.9281C74.1475 11.9432 74.0804 11.9772 74.0254 12.0267C73.9705 12.0761 73.9297 12.1393 73.9072 12.2098C73.8877 12.2693 73.8705 12.3311 73.8556 12.3941L73.0703 15.7146L73.021 15.9253L72.9923 16.0398L72.9637 16.1658C72.9453 16.2505 72.9316 16.3361 72.9224 16.4222C72.8765 16.7649 72.885 17.1127 72.9476 17.4528C73.0697 18.1266 73.3925 18.7479 73.874 19.2355C74.1099 19.4748 74.3804 19.6775 74.6765 19.8367C74.7499 19.8756 75.3839 20.1138 75.3839 20.1138C75.3839 20.1138 76.3377 20.3805 76.4031 20.4012C77.5564 20.7664 78.946 21.4477 79.7084 22.6729C80.7173 24.293 80.6668 26.8212 80.175 28.6647C80.1647 28.7036 80.1555 28.738 80.1463 28.7666C79.8211 29.8197 79.4136 30.8458 78.9276 31.8352C78.6838 32.3337 78.4224 32.8234 78.1434 33.3043C78.0043 33.5447 77.861 33.7817 77.7135 34.0153L77.4842 34.3588C77.4097 34.4733 77.326 34.5878 77.2549 34.684L77.2423 34.7012C77.1108 34.8851 77.0571 35.1133 77.0929 35.3364C77.1288 35.5596 77.2512 35.7596 77.4338 35.8931C77.6204 36.0262 77.8514 36.0818 78.0783 36.0482C78.3051 36.0147 78.5101 35.8947 78.6502 35.7134C78.7465 35.5909 78.8256 35.4844 78.9116 35.3699C78.9976 35.2554 79.0904 35.1271 79.1776 35.0046C79.3507 34.7596 79.5215 34.5157 79.6889 34.2661C80.0198 33.7691 80.3344 33.2608 80.6324 32.7409C80.9271 32.2199 81.2126 31.691 81.4774 31.1505C81.7422 30.6101 81.9841 30.0547 82.2089 29.4902C82.4336 28.9258 82.6273 28.3452 82.7993 27.7544C82.9716 27.1583 83.1128 26.5537 83.2223 25.943C83.2533 25.7896 83.2751 25.6339 83.2957 25.4781C83.3164 25.3224 83.3427 25.1678 83.3588 25.011C83.3863 24.6961 83.4184 24.3812 83.431 24.0618C83.4425 23.8224 83.4459 20.2741 80.6359 18.6894Z" fill="#8185A6"/>
<path d="M77.5198 6.0761L77.8167 7.35737L79.2097 6.51693L78.7649 5.07422L77.5198 6.0761Z" fill="#8185A6"/>
<path d="M78.9379 4.92992L78.7384 3.70934C78.7384 3.70934 79.2623 3.56736 79.6063 3.70934C79.9502 3.85132 80.1543 4.28872 80.1543 4.28872L78.9379 4.92992Z" fill="#8185A6"/>
<path d="M79.1088 3.22167L78.5195 3.31899L78.3223 2.96518C78.2575 2.78338 78.2576 2.5848 78.3226 2.40306C78.3876 2.22132 78.5134 2.06758 78.6789 1.96788L80.0661 1.12744L79.2521 2.20948C79.1347 2.36663 79.0759 2.55981 79.0859 2.75565L79.1088 3.22167Z" fill="#8185A6"/>
</svg>
