<svg width="20" height="20" viewBox="0 0 20 20" fill="none" xmlns="http://www.w3.org/2000/svg">
<path d="M14.7122 10.2932C14.6194 10.2003 14.5092 10.1265 14.3879 10.0762C14.2666 10.0259 14.1365 10 14.0052 10C13.8739 10 13.7438 10.0259 13.6225 10.0762C13.5012 10.1265 13.391 10.2003 13.2982 10.2932L11.7042 11.8872C10.9652 11.6672 9.58622 11.1672 8.71222 10.2932C7.83822 9.4192 7.33822 8.0402 7.11822 7.3012L8.71222 5.7072C8.80516 5.61441 8.8789 5.50421 8.92921 5.38289C8.97952 5.26158 9.00542 5.13153 9.00542 5.0002C9.00542 4.86887 8.97952 4.73882 8.92921 4.61751C8.8789 4.49619 8.80516 4.38599 8.71222 4.2932L4.71222 0.293201C4.61943 0.200255 4.50922 0.126517 4.38791 0.0762068C4.26659 0.0258961 4.13655 0 4.00522 0C3.87388 0 3.74384 0.0258961 3.62252 0.0762068C3.50121 0.126517 3.391 0.200255 3.29822 0.293201L0.586217 3.0052C0.206217 3.3852 -0.00778346 3.9072 0.000216545 4.4402C0.0232165 5.8642 0.400217 10.8102 4.29822 14.7082C8.19622 18.6062 13.1422 18.9822 14.5672 19.0062H14.5952C15.1232 19.0062 15.6222 18.7982 16.0002 18.4202L18.7122 15.7082C18.8052 15.6154 18.8789 15.5052 18.9292 15.3839C18.9795 15.2626 19.0054 15.1325 19.0054 15.0012C19.0054 14.8699 18.9795 14.7398 18.9292 14.6185C18.8789 14.4972 18.8052 14.387 18.7122 14.2942L14.7122 10.2932ZM14.5852 17.0052C13.3372 16.9842 9.06722 16.6492 5.71222 13.2932C2.34622 9.9272 2.02022 5.6422 2.00022 4.4192L4.00522 2.4142L6.59122 5.0002L5.29822 6.2932C5.18068 6.41065 5.09426 6.55554 5.04677 6.71477C4.99928 6.874 4.99222 7.04255 5.02622 7.2052C5.05022 7.3202 5.63722 10.0472 7.29722 11.7072C8.95722 13.3672 11.6842 13.9542 11.7992 13.9782C11.9618 14.0132 12.1305 14.0067 12.2899 13.9593C12.4492 13.9119 12.5941 13.8252 12.7112 13.7072L14.0052 12.4142L16.5912 15.0002L14.5852 17.0052Z" fill="#8185A6"/>
</svg>
